<svg width="27" height="27" viewBox="0 0 27 27" fill="none" xmlns="http://www.w3.org/2000/svg">
<g clip-path="url(#clip0_548_36396)">
<path d="M18.728 21.7726C17.4628 23.0379 15.7805 23.7347 13.9911 23.7347C12.2016 23.7347 10.5194 23.0379 9.25411 21.7726C7.99045 20.5089 7.29376 18.8293 7.29199 17.0425L7.177 8.25155C7.17688 8.24184 7.17688 8.23215 7.17706 8.22244C7.19897 6.96027 7.70603 5.77794 8.60725 4.89298C9.50769 4.00807 10.6988 3.52079 11.9611 3.52082C13.2234 3.52084 14.4145 4.00812 15.3148 4.893C16.2153 5.77792 16.7232 6.96032 16.745 8.22246L16.8615 17.023C16.8681 17.4023 16.7994 17.7771 16.6574 18.1329C16.5154 18.4888 16.3072 18.8079 16.0386 19.0812C15.7683 19.3537 15.4544 19.5684 15.101 19.7165C14.7481 19.8646 14.3745 19.9398 13.9911 19.9397C13.6079 19.9397 13.2344 19.8646 12.881 19.7164C12.5276 19.5682 12.2122 19.3545 11.9436 19.0812C11.675 18.8079 11.4668 18.4888 11.3248 18.1329C11.1837 17.7794 11.1151 17.4074 11.1206 17.0271L11.1205 8.12267C11.1205 7.59416 11.5489 7.16576 12.0775 7.16574C12.6059 7.16574 13.0344 7.59418 13.0344 8.12267L13.0344 17.0357C13.0344 17.0412 13.0344 17.0467 13.0343 17.0523C13.032 17.18 13.055 17.3049 13.1023 17.4236C13.1496 17.5422 13.219 17.6485 13.3086 17.7396C13.3981 17.8308 13.5032 17.902 13.621 17.9514C13.7389 18.0008 13.8633 18.0258 13.9911 18.0258C14.1189 18.0258 14.2432 18.0008 14.3608 17.9515C14.479 17.902 14.5828 17.8295 14.6737 17.7397C14.7632 17.6486 14.8325 17.5423 14.8799 17.4236C14.9272 17.3049 14.9501 17.18 14.9479 17.0523L14.8314 8.25173C14.8184 7.49842 14.5136 6.78896 13.9733 6.25804C13.4331 5.72711 12.7185 5.43475 11.9611 5.43472C11.2037 5.43467 10.4891 5.72703 9.9488 6.25801C9.94275 6.26396 9.93668 6.26998 9.93065 6.27601C9.40498 6.80168 9.10729 7.49842 9.09096 8.2421L9.20579 17.0231C9.20587 17.0273 9.20587 17.0315 9.20587 17.0357C9.20589 18.3138 9.7036 19.5155 10.6074 20.4193C11.5112 21.3231 12.7129 21.8208 13.9911 21.8208C15.2693 21.8208 16.471 21.3231 17.3747 20.4193C18.2785 19.5155 18.7763 18.3139 18.7763 17.0356L18.7858 8.57632C18.7864 8.0478 19.2153 7.61981 19.7438 7.62043C20.2723 7.62102 20.7002 8.04995 20.6996 8.57842L20.6902 17.0367C20.6902 18.8251 19.9933 20.5073 18.728 21.7726Z" fill="#898CAF"/>
</g>
<defs>
<clipPath id="clip0_548_36396">
<rect width="19.0924" height="19.0924" fill="white" transform="translate(0 13.5001) rotate(-45)"/>
</clipPath>
</defs>
</svg>
