<svg width="28" height="28" viewBox="0 0 28 28" fill="none" xmlns="http://www.w3.org/2000/svg">
<path d="M22.2767 21.196C21.1978 21.2007 21.1978 22.8415 22.2767 22.8461C23.3557 22.8415 23.3557 21.2007 22.2767 21.196Z" fill="#8181A1"/>
<path d="M22.2767 18.2205C21.1978 18.2252 21.1978 19.866 22.2767 19.8707C23.3557 19.866 23.3557 18.2252 22.2767 18.2205Z" fill="#8181A1"/>
<path d="M22.2767 15.2441C21.1978 15.2488 21.1978 16.8896 22.2767 16.8942C23.3557 16.8896 23.3557 15.2488 22.2767 15.2441Z" fill="#8181A1"/>
<path d="M23.3351 6.24492H16.1923C15.16 6.24772 14.1987 5.72412 13.6415 4.85519L12.6895 3.37492C11.8766 2.10372 10.471 1.33559 8.96177 1.33839H4.66844C2.22124 1.34119 0.237907 3.32452 0.235107 5.77172V19.432C0.244441 20.3448 1.62764 20.3504 1.63511 19.432V5.77172C1.63697 4.09732 2.99404 2.74025 4.66844 2.73839H8.96177C9.99404 2.73652 10.9554 3.26105 11.5126 4.12999L12.4646 5.61119C13.2784 6.88145 14.684 7.64865 16.1923 7.64492H23.3351C25.0095 7.64679 26.3666 9.00385 26.3684 10.6783V21.2987C26.3656 23.4883 24.5914 25.2625 22.4018 25.2653H5.60177H5.01004C4.26057 25.27 3.69217 24.5252 3.89004 23.8037L6.16457 15.0957C6.51271 13.7583 7.72044 12.8259 9.10177 12.8259H24.2684C25.1766 12.8249 25.1896 11.4287 24.2684 11.4259H9.10177C7.08391 11.424 5.31897 12.7857 4.80844 14.7383L2.53391 23.4463C2.09431 25.0367 3.35431 26.6728 5.00164 26.6616H22.398C25.3604 26.6579 27.761 24.2573 27.7647 21.2949V10.6783C27.7619 8.23292 25.7804 6.24959 23.3351 6.24492Z" fill="#8181A1"/>
</svg>
