<svg width="37" height="42" viewBox="0 0 37 42" fill="none" xmlns="http://www.w3.org/2000/svg">
<g clip-path="url(#clip0_541_207)">
<path d="M9.57474 24.4713C9.57474 25.38 10.3269 26.1165 11.2576 26.1165H26.7869C27.2333 26.1165 27.6618 26.2887 27.9788 26.5981L36.1251 34.5518C36.4398 34.8591 36.6184 35.2775 36.6184 35.7133V40.3526C36.6184 41.8191 34.8038 42.5513 33.7437 41.5162L28.0078 35.9181C27.6931 35.6087 27.2646 35.4366 26.8182 35.4366H10.7576C9.82694 35.4366 9.07257 34.7 9.07257 33.7913V28.2499C9.07257 27.3412 8.31819 26.6047 7.38973 26.6047H1.68283C0.754373 26.6047 0 25.8703 0 24.9616V10.7909C0 9.88223 0.754373 9.14569 1.68283 9.14569H7.33394C8.2624 9.14569 9.01677 8.41351 9.019 7.50701L9.03239 1.64086C9.03462 0.734357 9.789 0 10.7175 0H26.4187C27.3494 0 28.1038 0.736536 28.1038 1.64304V7.32832C28.1038 8.237 28.8581 8.97354 29.7888 8.97354H35.3172C36.2456 8.97354 37 9.71008 37 10.6188V23.068C37 24.5323 35.1877 25.2667 34.1253 24.2294L31.9292 22.0852C28.9697 19.1957 27.3092 15.2777 27.3092 11.194C27.3092 10.7386 27.1195 10.3289 26.816 10.0304C26.5102 9.73187 26.0884 9.54882 25.6241 9.54882H11.2576C10.3269 9.54882 9.57474 10.2854 9.57474 11.194V24.4713Z" fill="url(#paint0_linear_541_207)"/>
<path d="M14.8041 16.6244C14.2327 16.6244 13.7729 17.0755 13.7729 17.6311C13.7729 18.1868 14.2327 18.6379 14.8041 18.6379C15.3732 18.6379 15.833 18.1868 15.833 17.6311C15.833 17.0755 15.3732 16.6244 14.8041 16.6244ZM18.5447 16.6244C17.9756 16.6244 17.5136 17.0755 17.5136 17.6311C17.5136 18.1868 17.9756 18.6379 18.5447 18.6379C19.1138 18.6379 19.5758 18.1868 19.5758 17.6311C19.5758 17.0755 19.1138 16.6244 18.5447 16.6244ZM22.1983 16.6244C21.6269 16.6244 21.1671 17.0755 21.1671 17.6311C21.1671 18.1868 21.6269 18.6379 22.1983 18.6379C22.7674 18.6379 23.2294 18.1868 23.2294 17.6311C23.2294 17.0755 22.7674 16.6244 22.1983 16.6244Z" fill="#598DFF"/>
<path d="M21.2274 0C20.4596 3.44734 19.0691 6.67023 17.1787 9.54882H11.2576C10.3269 9.54882 9.57474 10.2854 9.57474 11.194V17.4393C6.7224 19.4724 3.49065 21.0283 0 21.985V10.7909C0 9.88222 0.754373 9.14569 1.68283 9.14569H7.33394C8.2624 9.14569 9.01677 8.41351 9.019 7.507L9.03239 1.64086C9.03463 0.734357 9.789 0 10.7175 0H21.2274Z" fill="url(#paint1_linear_541_207)"/>
</g>
<defs>
<linearGradient id="paint0_linear_541_207" x1="0" y1="21.0005" x2="37" y2="21.0005" gradientUnits="userSpaceOnUse">
<stop stop-color="#4277FF"/>
<stop offset="1" stop-color="#C4F4FF"/>
</linearGradient>
<linearGradient id="paint1_linear_541_207" x1="0" y1="10.9925" x2="21.2274" y2="10.9925" gradientUnits="userSpaceOnUse">
<stop stop-color="#B8E9FF"/>
<stop offset="1" stop-color="#5085FF"/>
</linearGradient>
<clipPath id="clip0_541_207">
<rect width="37" height="42" fill="white"/>
</clipPath>
</defs>
</svg>
