<svg width="52" height="52" viewBox="0 0 52 52" fill="none" xmlns="http://www.w3.org/2000/svg">
<path d="M52 36.7656L52 15.2344C52 6.825 45.175 -5.9666e-07 36.7656 -1.33183e-06L15.2344 -3.21415e-06C6.825 -3.94932e-06 3.21804e-06 6.825 2.48287e-06 15.2344L6.00544e-07 36.7656C-1.34627e-07 45.175 6.825 52 15.2344 52L36.7656 52C45.175 52 52 45.175 52 36.7656Z" fill="url(#paint0_linear_548_36369)"/>
<path d="M14.5134 14.5133L31.4347 17.8618L37.4868 37.4867L22.9735 52L15.2345 52C6.82509 52 9.65016e-05 45.175 9.72368e-05 36.7656L9.79133e-05 29.0266L14.5134 14.5133Z" fill="url(#paint1_linear_548_36369)"/>
<path d="M14.5134 14.5133L37.4868 14.5133L37.4868 37.4867L30.6009 30.6008L30.6009 26L16.8087 39.7922L12.2079 35.1914L26.0001 21.3992L21.3993 21.3992L14.5134 14.5133Z" fill="white"/>
<defs>
<linearGradient id="paint0_linear_548_36369" x1="47.5363" y1="4.46367" x2="4.46366" y2="47.5363" gradientUnits="userSpaceOnUse">
<stop stop-color="#C4F4FF"/>
<stop offset="1" stop-color="#3C74CF"/>
</linearGradient>
<linearGradient id="paint1_linear_548_36369" x1="32.7865" y1="19.2136" x2="4.46377" y2="47.5363" gradientUnits="userSpaceOnUse">
<stop stop-opacity="0.35"/>
<stop offset="1" stop-opacity="0"/>
</linearGradient>
</defs>
</svg>
