<svg width="18" height="18" viewBox="0 0 18 18" fill="none" xmlns="http://www.w3.org/2000/svg">
<path d="M15.75 10.125C15.6008 10.125 15.4577 10.1843 15.3523 10.2898C15.2468 10.3952 15.1875 10.5383 15.1875 10.6875V14.0625C15.1875 14.3609 15.069 14.647 14.858 14.858C14.647 15.069 14.3609 15.1875 14.0625 15.1875H3.9375C3.63913 15.1875 3.35298 15.069 3.142 14.858C2.93103 14.647 2.8125 14.3609 2.8125 14.0625V3.9375C2.8125 3.63913 2.93103 3.35298 3.142 3.142C3.35298 2.93103 3.63913 2.8125 3.9375 2.8125H8.4375C8.58668 2.8125 8.72976 2.75324 8.83525 2.64775C8.94074 2.54226 9 2.39918 9 2.25C9 2.10082 8.94074 1.95774 8.83525 1.85225C8.72976 1.74676 8.58668 1.6875 8.4375 1.6875H3.9375C3.34076 1.6875 2.76847 1.92455 2.34651 2.34651C1.92455 2.76847 1.6875 3.34076 1.6875 3.9375V14.0625C1.6875 14.6592 1.92455 15.2315 2.34651 15.6535C2.76847 16.0754 3.34076 16.3125 3.9375 16.3125H14.0625C14.6592 16.3125 15.2315 16.0754 15.6535 15.6535C16.0754 15.2315 16.3125 14.6592 16.3125 14.0625V10.6875C16.3125 10.5383 16.2532 10.3952 16.1477 10.2898C16.0423 10.1843 15.8992 10.125 15.75 10.125Z" fill="#8181A1"/>
<path d="M16.6832 5.76448L12.1832 1.82698C12.1019 1.75575 12.0018 1.70945 11.8949 1.69362C11.7879 1.6778 11.6787 1.69311 11.5803 1.73774C11.4818 1.78236 11.3983 1.85441 11.3397 1.94525C11.2812 2.0361 11.25 2.14189 11.25 2.24998V4.49998H10.6875C8.89788 4.50192 7.18212 5.2137 5.91667 6.47915C4.65122 7.7446 3.93944 9.46036 3.9375 11.25C3.93745 11.3666 3.97362 11.4803 4.04102 11.5754C4.10843 11.6706 4.20373 11.7424 4.31374 11.781C4.42375 11.8196 4.54305 11.8231 4.65512 11.7909C4.76719 11.7588 4.8665 11.6926 4.93931 11.6015C5.78025 10.5502 7.58306 8.74123 10.1908 8.43354C10.5423 8.39243 10.8965 8.37945 11.25 8.39473V10.6875C11.25 10.7987 11.283 10.9074 11.3448 10.9999C11.4066 11.0924 11.4945 11.1645 11.5973 11.207C11.7 11.2496 11.8131 11.2608 11.9222 11.2391C12.0313 11.2174 12.1315 11.1638 12.2102 11.0852L16.7102 6.58517C16.7646 6.53074 16.8073 6.46571 16.8356 6.39412C16.8638 6.32253 16.8771 6.2459 16.8746 6.16897C16.8721 6.09204 16.8538 6.01645 16.8208 5.94687C16.7879 5.8773 16.7411 5.81522 16.6832 5.76448ZM12.375 9.32961V7.87498C12.3749 7.73703 12.3242 7.60391 12.2324 7.50093C12.1406 7.39795 12.0142 7.33228 11.8772 7.31642C11.2732 7.2461 10.6631 7.2461 10.0592 7.31642C8.28469 7.5578 6.62884 8.34396 5.32013 9.56642C5.68 8.42444 6.39426 7.42677 7.35934 6.71807C8.32443 6.00938 9.49016 5.62651 10.6875 5.62498H11.8125C11.9617 5.62498 12.1048 5.56572 12.2102 5.46023C12.3157 5.35474 12.375 5.21167 12.375 5.06248V3.48748L15.4896 6.21279L12.375 9.32961Z" fill="#8181A1"/>
</svg>
