<svg width="67" height="67" viewBox="0 0 67 67" fill="none" xmlns="http://www.w3.org/2000/svg">
<g clip-path="url(#clip0_77_430)">
<path d="M21.7047 20.5628C22.0415 20.3257 22.4446 20.2007 22.8566 20.2058C23.2685 20.2108 23.6684 20.3456 23.9994 20.5909L34.9988 28.6429L48.3179 26.2947C48.6098 26.2437 48.9095 26.2587 49.195 26.3387C49.4804 26.4187 49.7443 26.5615 49.9673 26.7568C50.133 26.9046 50.2743 27.0778 50.3858 27.2699C50.5867 27.628 50.6715 28.0396 50.6286 28.448C50.5858 28.8564 50.4173 29.2414 50.1465 29.5501L31.8485 50.3574C31.6131 50.6249 31.31 50.824 30.971 50.9336C30.632 51.0433 30.2698 51.0596 29.9223 50.9807C29.5749 50.9017 29.2552 50.7306 28.9968 50.4853C28.7385 50.2399 28.5511 49.9294 28.4544 49.5865L20.9248 22.7235C20.8121 22.327 20.8267 21.9052 20.9666 21.5175C21.1066 21.1298 21.3647 20.7959 21.7047 20.5628Z" fill="white"/>
</g>
<defs>
<clipPath id="clip0_77_430">
<rect width="47.5004" height="47.5004" fill="white" transform="translate(38.3381 66.3818) rotate(-143.815)"/>
</clipPath>
</defs>
</svg>
